<?xml version="1.0" encoding="utf-8"?>
<!-- Svg Vector Icons : http://www.onlinewebfonts.com/icon -->
<!DOCTYPE svg PUBLIC "-//W3C//DTD SVG 1.1//EN" "http://www.w3.org/Graphics/SVG/1.1/DTD/svg11.dtd">
<svg version="1.1" xmlns="http://www.w3.org/2000/svg" xmlns:xlink="http://www.w3.org/1999/xlink" x="0px" y="0px" viewBox="0 0 1000 1000" enable-background="new 0 0 1000 1000" xml:space="preserve">
<metadata> Svg Vector Icons : http://www.onlinewebfonts.com/icon </metadata>
<g><g transform="translate(0.000000,512.000000) scale(0.100000,-0.100000)"><path d="M4645,5015.9c-707.6-72.9-1233.1-214.8-1789.2-487.1c-500.5-243.6-866.8-502.5-1267.6-891.7c-433.4-423.8-721.1-813.1-978-1334.7C255.3,1587,100,927.3,100,118c0-809.3,155.3-1468.9,510.1-2184.3c257-521.6,544.6-910.9,978-1334.7c402.7-391.2,774.8-652,1271.4-891.7c471.8-228.2,909-364.4,1421-444.9c383.5-59.4,1054.8-59.4,1438.3,0c512,80.5,949.3,216.7,1421,444.9c496.7,237.8,866.8,498.6,1271.5,891.7c433.4,423.8,726.8,822.7,981.9,1342.4c243.6,498.6,379.7,926.3,462.2,1457.5c59.4,383.5,59.4,1054.7,0,1438.3c-128.5,824.6-448.8,1582.1-947.4,2249.5c-170.7,228.2-579.2,650.1-811.2,838c-675,548.5-1509.2,916.7-2378,1047.1C5479.2,5008.2,4831,5035,4645,5015.9z M5379.5,3778.9c435.3-46,820.8-157.3,1208.2-343.3c772.8-373.9,1355.8-956.9,1729.8-1729.8c726.8-1507.3,335.6-3327.2-949.3-4403.1c-1114.2-933.9-2656-1129.5-3956.2-502.5C2081-2557.2,1264.1-1209.1,1323.5,252.3c28.8,698,220.5,1306,596.4,1879.4c617.5,943.5,1605.1,1538,2753.8,1655C4825.2,3801.9,5205,3798.1,5379.5,3778.9z"/><path d="M3586.4,2538.2c-145.7-51.8-249.3-128.5-314.5-230.1c-118.9-187.9-115.1-95.9-109.3-2230.3l5.7-1944.6l63.3-128.5c105.5-216.7,293.4-329.8,540.8-331.8c247.4,0,448.7,126.6,554.2,352.9c47.9,101.6,49.9,124.6,55.6,483.3l5.8,377.8l444.9,7.7c398.9,9.6,464.1,15.3,629,57.5c646.3,172.6,1143,671.2,1317.5,1317.5c40.3,157.3,47.9,226.3,49.9,462.2c0,245.5-5.8,301.1-51.8,467.9c-86.3,310.7-224.4,558-439.2,790.1c-230.1,245.5-523.5,421.9-861,519.7l-180.3,49.9l-805.4,7.7C3749.4,2572.7,3678.5,2570.8,3586.4,2538.2z M5252.9,1293.6c115.1-51.8,243.6-182.2,304.9-303c38.4-78.6,46-124.7,46-258.9c0-191.8-44.1-304.9-172.6-431.5c-42.2-44.1-120.8-99.7-172.6-126.6c-90.1-44.1-117-46-483.3-51.8l-389.3-5.7v615.6v615.6l389.3-5.8C5124.4,1335.8,5172.4,1331.9,5252.9,1293.6z"/></g></g>
</svg>