<?xml version="1.0" encoding="utf-8"?>
<!-- Svg Vector Icons : http://www.onlinewebfonts.com/icon -->
<!DOCTYPE svg PUBLIC "-//W3C//DTD SVG 1.1//EN" "http://www.w3.org/Graphics/SVG/1.1/DTD/svg11.dtd">
<svg version="1.1" xmlns="http://www.w3.org/2000/svg" xmlns:xlink="http://www.w3.org/1999/xlink" x="0px" y="0px" viewBox="0 0 1000 1000" enable-background="new 0 0 1000 1000" xml:space="preserve">
<metadata> Svg Vector Icons : http://www.onlinewebfonts.com/icon </metadata>
<g><path d="M898.4,990H101.2c-33.7,0-61.1-27-61.1-60.8v-671L837.3,14.4c14.1-3.9,26.3-6.7,38.4-2c15.7,5.9,22.7,15.3,22.7,32.1v213.6c34.1,0,61.5,27.4,61.5,61.1v609.9C959.9,963,932.5,990,898.4,990L898.4,990z M837.3,75.2l-598.1,183h598.1V75.2z M898.4,654.5c0-16.9,0-7.4,0-30.2V349.6c0-16.9-13.7-30.2-30.6-30.2H101.2v579.3c0,16.9,13.7,30.6,30.6,30.6h736.1c16.9,0,30.6-13.7,30.6-30.6V685.1C898.4,664.3,898.4,671.3,898.4,654.5L898.4,654.5z"/><path d="M714.2,682.3h214.4v61.5H653.1v-241h275.5v61.5H714.2V682.3z"/></g>
</svg>