<?xml version="1.0" encoding="utf-8"?>
<!-- Svg Vector Icons : http://www.onlinewebfonts.com/icon -->
<!DOCTYPE svg PUBLIC "-//W3C//DTD SVG 1.1//EN" "http://www.w3.org/Graphics/SVG/1.1/DTD/svg11.dtd">
<svg version="1.1" xmlns="http://www.w3.org/2000/svg" xmlns:xlink="http://www.w3.org/1999/xlink" x="0px" y="0px" viewBox="0 0 1000 1000" enable-background="new 0 0 1000 1000" xml:space="preserve">
<metadata> Svg Vector Icons : http://www.onlinewebfonts.com/icon </metadata>
<g><g><g><path d="M757.6,308.1H268.8c-80.8,0-146.5,65.7-146.5,146.5c0,9.1,7.4,16.4,16.4,16.4h618.9c28.3,0,51.2-23,51.2-51.2v-60.5C808.9,331.1,785.9,308.1,757.6,308.1z M431.9,341h96v97.2h-96V341z M399,438.2h-96V341h96V438.2z M560.8,341h96v97.2h-96V341L560.8,341z M268.8,341h1.4v97.2H156.3C164.3,383.3,211.7,341,268.8,341z M776,419.8c0,10.1-8.2,18.4-18.4,18.4h-68V341h68c10.1,0,18.4,8.2,18.4,18.4V419.8z"/><path d="M235,618.2c-26.7,0-48.4,21.7-48.4,48.4c0,26.7,21.7,48.4,48.4,48.4c26.7,0,48.4-21.7,48.4-48.4C283.3,639.9,261.6,618.2,235,618.2z M235,682c-8.5,0-15.5-6.9-15.5-15.5c0-8.5,6.9-15.5,15.5-15.5c8.5,0,15.5,6.9,15.5,15.5C250.4,675.1,243.5,682,235,682z"/><path d="M745.5,618.2c-26.7,0-48.4,21.7-48.4,48.4c0,26.7,21.7,48.4,48.4,48.4c26.7,0,48.4-21.7,48.4-48.4C793.9,639.9,772.2,618.2,745.5,618.2z M745.5,682c-8.5,0-15.5-6.9-15.5-15.5c0-8.5,6.9-15.5,15.5-15.5c8.5,0,15.5,6.9,15.5,15.5C761,675.1,754.1,682,745.5,682z"/><path d="M990,616.1c0-9-7.3-16.3-16.2-16.4V394.6c0-87.5-71.2-158.7-158.7-158.7H300.3C151,235.9,29.6,357.3,29.6,506.6v93.1h-3.1c-9.1,0-16.4,7.4-16.4,16.4c0,9.1,7.4,16.4,16.4,16.4h3.1v34c0,9.1,7.4,16.4,16.4,16.4h92.8c7.8,46,48,81.1,96.1,81.1s88.3-35.1,96.1-81.1h318.3c7.8,46,48,81.1,96.1,81.1c48.2,0,88.3-35.1,96.1-81.1h115.6c9.1,0,16.4-7.4,16.4-16.4v-34C982.7,632.5,990,625.1,990,616.1z M940.9,474.7h-26.7c-23.5,0-42.6-19.1-42.6-42.6v-69.6c0-11.9,9.7-21.6,21.6-21.6h35.7c7.7,16.3,12,34.4,12,53.6L940.9,474.7L940.9,474.7L940.9,474.7z M235,731.2c-35.7,0-64.7-29-64.7-64.7s29-64.7,64.7-64.7s64.7,29,64.7,64.7S270.6,731.2,235,731.2z M745.5,731.2c-35.7,0-64.7-29-64.7-64.7s29-64.7,64.7-64.7c35.7,0,64.7,29,64.7,64.7S781.2,731.2,745.5,731.2z M841.7,650.1c-7.8-46-48-81.1-96.1-81.1c-48.2,0-88.3,35.1-96.1,81.1H331.1c-7.8-46-48-81.1-96.1-81.1s-88.3,35.1-96.1,81.1H62.4v-17.5h40.7c9.1,0,16.4-7.4,16.4-16.4c0-9.1-7.4-16.4-16.4-16.4H62.4v-93.1c0-131.1,106.7-237.8,237.8-237.8h514.8c35.9,0,68.3,15.1,91.2,39.3h-13.1c-30,0-54.5,24.4-54.5,54.5v69.6c0,41.6,33.8,75.4,75.4,75.4h26.7v41.7h-15.5c-9.1,0-16.4,7.4-16.4,16.4c0,9.1,7.4,16.4,16.4,16.4h15.5v17.5h-44c-9.1,0-16.4,7.4-16.4,16.4c0,9.1,7.4,16.4,16.4,16.4h44v17.5H841.7L841.7,650.1z"/></g></g><g></g><g></g><g></g><g></g><g></g><g></g><g></g><g></g><g></g><g></g><g></g><g></g><g></g><g></g><g></g></g>
</svg>