<?xml version="1.0" encoding="utf-8"?>
<!-- Svg Vector Icons : http://www.onlinewebfonts.com/icon -->
<!DOCTYPE svg PUBLIC "-//W3C//DTD SVG 1.1//EN" "http://www.w3.org/Graphics/SVG/1.1/DTD/svg11.dtd">
<svg version="1.1" xmlns="http://www.w3.org/2000/svg" xmlns:xlink="http://www.w3.org/1999/xlink" x="0px" y="0px" viewBox="0 0 1000 1000" enable-background="new 0 0 1000 1000" xml:space="preserve">
<metadata> Svg Vector Icons : http://www.onlinewebfonts.com/icon </metadata>
<g><g transform="translate(0.000000,241.000000) scale(0.100000,-0.100000)"><path d="M3346.5-305.8c-107.6-28.8-230.6-92.2-343.9-178.7c-34.6-26.9-295.9-328.5-580.2-668.6l-516.8-620.6h-388.1c-453.4,0-586-21.1-783.9-126.8c-151.8-78.8-297.8-224.8-359.3-357.4c-61.5-128.7-140.2-572.5-140.2-789.6c0-55.7-5.8-132.6-11.5-171c-11.5-59.6-21.1-73-57.6-73c-57.6,0-74.9-82.6-59.6-292c13.5-203.6,84.5-351.6,196-409.2c71.1-36.5,121-38.4,699.3-48l620.6-9.6l32.6-105.7c57.6-180.6,136.4-311.2,269-443.8c315.1-313.2,776.2-392,1173.9-197.9c261.3,128.7,478.4,390,545.6,655.2l23.1,92.2l1191.2,5.8l1189.3,3.8l44.2-138.3c142.2-455.3,586-755.1,1060.5-720.5c422.7,32.6,782,317,904.9,714.7l46.1,144.1h739.7c440,0,768.5,7.7,810.8,19.2c184.4,51.9,286.3,324.7,234.4,637.9c-11.5,71.1-15.4,73-96.1,73c-71.1,0-84.5,5.8-92.2,44.2c-119.1,541.8-284.3,810.8-626.3,1014.4c-207.5,123-716.6,267.1-1220,345.8l-153.7,25l-182.5,172.9c-101.8,96.1-418.8,399.6-707,674.4c-288.2,274.7-572.5,530.3-630.2,568.7c-121.1,80.7-301.7,144.1-484.2,171c-71.1,9.6-599.4,17.3-1185.4,17.3C3640.5-277,3433-282.7,3346.5-305.8z M5778.8-601.7c90.3-23.1,190.2-65.3,247.9-103.7c51.9-36.5,420.8-374.6,816.5-755.1l722.4-687.8l253.6-42.3c140.2-23.1,351.6-65.3,472.6-94.1l219-51.9l36.5-232.5l34.6-232.5l330.5-9.6c182.5-5.7,340.1-19.2,349.7-28.8c69.2-69.2,165.2-449.6,186.3-733.9l13.5-178.7h-674.4h-676.3l-9.6,53.8c-90.3,420.8-376.6,737.8-760.8,839.6c-132.6,36.5-401.6,36.5-534.1,0c-349.6-92.2-653.2-403.5-733.9-749.3c-11.5-51.9-25-107.6-28.8-119.1c-5.8-19.2-257.5-25-1185.4-25H3680.8l-23,113.4c-74.9,357.3-370.8,672.4-732,778.1c-132.6,38.4-401.5,40.3-545.6,1.9c-370.8-96.1-659-399.6-745.5-785.8l-25-111.4l-336.2,7.7c-395.8,7.7-511,40.3-647.5,176.7c-117.2,117.2-132.6,192.1-107.6,520.7C553-2619,620.2-2409.6,772-2257.8c172.9,172.9,345.8,213.3,903,215.2c286.3,0,343.9,5.8,388.1,34.6c28.8,17.3,272.8,301.6,541.8,630.2c269,330.5,528.3,630.2,576.4,670.5c178.7,146,138.3,142.2,1358.3,144.1C5569.4-563.2,5634.7-565.2,5778.8-601.7z M2906.5-3295.3C3285-3472,3390.7-3965.8,3114-4279c-232.5-263.2-630.2-282.4-897.2-40.4c-44.2,38.4-103.8,119.1-132.6,178.7c-73,147.9-76.9,386.2-9.6,532.2c48,105.7,174.8,245.9,263.2,292.1C2516.5-3220.3,2729.8-3212.7,2906.5-3295.3z M7308.2-3285.7c124.9-57.6,255.5-182.5,317-311.3c44.2-90.3,53.8-132.6,53.8-261.3c0-136.4-7.7-169-63.4-282.4c-34.6-69.2-94.2-155.6-132.6-190.2c-318.9-278.6-806.9-178.7-987.5,203.6c-128.7,269-38.4,611,201.7,778.1C6875.9-3226.1,7116-3201.1,7308.2-3285.7z"/><path d="M3557.8-761.1c-59.6-13.5-136.4-40.4-171-61.5c-42.3-25-211.3-236.3-493.8-614.8c-236.3-317-428.4-582.1-430.4-591.7c0-7.7,438-11.5,976-9.6l974.1,5.8v643.6v643.6l-374.6,3.8C3805.7-740,3623.2-747.7,3557.8-761.1z"/><path d="M4768.2-1387.5v-655.2h1123.9c618.7,0,1123.9,5.8,1123.9,15.4c0,7.7-261.3,274.7-580.2,593.7C5700.1-699.6,5786.5-747.7,5196.7-740l-428.4,7.7V-1387.5z"/></g></g>
</svg>