<?xml version="1.0" encoding="utf-8"?>
<!-- Svg Vector Icons : http://www.onlinewebfonts.com/icon -->
<!DOCTYPE svg PUBLIC "-//W3C//DTD SVG 1.1//EN" "http://www.w3.org/Graphics/SVG/1.1/DTD/svg11.dtd">
<svg version="1.1" xmlns="http://www.w3.org/2000/svg" xmlns:xlink="http://www.w3.org/1999/xlink" x="0px" y="0px" viewBox="0 0 1000 1000" enable-background="new 0 0 1000 1000" xml:space="preserve">
<metadata> Svg Vector Icons : http://www.onlinewebfonts.com/icon </metadata>
<g><g transform="translate(0.000000,511.000000) scale(0.100000,-0.100000)"><path d="M350.7,3405.6L135,3207.4L117.5,584L100-2039.5l134.1-157.4C339-2313.5,432.3-2354.3,630.5-2366c227.4-11.6,262.3-29.1,314.8-198.2c186.6-542.2,682.1-857,1294.2-816.2c495.5,29.1,804.5,244.9,1031.9,699.6l163.3,332.3l1655.7-5.9l1655.7-5.8l163.3-326.5c110.7-221.5,244.8-384.8,413.9-501.3c233.2-157.4,297.3-174.9,711.2-174.9c413.9,0,478.1,17.5,711.3,174.9c163.2,116.6,308.9,291.5,419.7,513c145.7,285.7,192.4,332.3,332.3,332.3c174.9,0,402.3,233.2,402.3,408.1c0,134.1-221.5,408.1-326.5,408.1c-64.1,0-81.6,122.4-81.6,641.3v641.3l-466.4,1061c-320.6,746.2-518.9,1113.5-641.3,1230.1c-169.1,151.6-198.2,157.4-845.3,157.4h-670.4v378.9c0,448.9-99.1,717.1-320.6,892c-163.2,128.3-174.9,128.3-3066.5,128.3H572.2L350.7,3405.6z M6437.1,3189.9c104.9-116.6,110.7-244.8,110.7-2407.7v-2279.5l-1626.5-17.5L3289-1526.4L3055.8-1299c-559.7,548-1294.2,553.8-1830.6,17.5c-239-233.2-274-250.7-524.7-233.2l-274,17.5V782.2c0,2162.9,5.8,2291.1,110.8,2407.7c110.8,122.4,139.9,122.4,2949.9,122.4C6297.2,3312.4,6326.3,3312.4,6437.1,3189.9z M8226.9,1814.1c46.6-58.3,291.5-559.6,530.5-1113.5L9200.4-308v-583c0-600.5-40.8-688-209.9-431.4c-134.1,209.9-635.5,437.2-950.3,437.2c-343.9-5.8-728.7-180.7-973.5-448.9l-198.2-215.7V181.7v1731.5h629.7C8028.6,1913.2,8145.2,1895.7,8226.9,1814.1z M2554.4-1304.9C3219-1643,3265.6-2599.2,2636-2989.7c-384.8-233.2-967.8-134.1-1241.8,215.7c-408.1,518.9-233.2,1206.8,373.1,1486.6C2076.3-1147.5,2245.4-1147.5,2554.4-1304.9z M8442.5-1304.9c367.3-186.6,524.7-448.9,524.7-862.8c0-565.5-367.2-944.5-927-944.5c-1055.2,0-1352.5,1387.5-390.6,1824.7C7964.5-1147.5,8133.6-1147.5,8442.5-1304.9z M881.2-1940.3c-29.1-93.3-69.9-110.8-244.8-99.1c-145.7,11.7-215.7,46.6-227.4,122.4c-17.5,81.6,23.3,99.1,239,99.1C887-1817.9,910.3-1829.6,881.2-1940.3z M6810.2-1841.3c0-11.6-17.4-64.1-35-116.6c-29.2-81.6-239-93.3-1719.8-93.3c-1644,0-1684.8,0-1684.8,116.6c0,116.6,40.8,116.6,1719.8,116.6C6034.9-1817.9,6810.2-1829.6,6810.2-1841.3z M9567.7-1899.6c17.4-46.6,17.4-99.1,0-116.6c-40.9-40.8-250.7-46.6-250.7-11.6c0,11.6-17.4,64.1-35,116.6c-29.2,69.9,0,93.3,110.8,93.3C9474.5-1817.9,9550.2-1852.9,9567.7-1899.6z"/><path d="M7130.8,1610c-17.4-75.8-23.3-542.2-17.4-1037.7l17.4-903.6l839.5-17.5c466.4-5.9,868.7,11.7,897.8,40.8c29.1,29.2-110.8,425.6-378.9,1037.7l-425.6,979.4l-448.9,17.5C7189.1,1744.1,7160,1738.3,7130.8,1610z M8081.1,910.4c134-297.3,279.8-641.3,332.3-757.9L8500.8-69H7947h-553.8v717.1c0,396.5,17.5,740.4,40.9,757.9c17.4,23.3,122.4,40.8,227.3,40.8C7842.1,1446.8,7853.7,1429.3,8081.1,910.4z"/><path d="M1808.2-1835.4c-186.6-198.2-174.9-518.9,23.3-676.3c320.6-250.7,781.2-46.6,781.2,344C2612.7-1765.4,2082.2-1543.9,1808.2-1835.4z M2303.7-2086.1c17.5-46.7-11.7-134.1-64.1-186.6c-87.4-87.5-99.1-87.5-186.6,0c-122.4,122.4-64.1,279.8,93.3,279.8C2210.4-1992.8,2280.4-2033.6,2303.7-2086.1z"/><path d="M7713.8-1847.1c-291.5-285.7-87.5-787,320.6-787c239,0,466.4,227.4,466.4,466.4s-227.4,466.4-466.4,466.4C7923.7-1701.3,7801.2-1753.8,7713.8-1847.1z M8191.9-2086.1c17.4-46.7-11.7-134.1-64.2-186.6c-87.5-87.5-99.1-87.5-186.5,0c-122.4,122.4-64.1,279.8,93.2,279.8C8098.5-1992.8,8168.6-2033.6,8191.9-2086.1z"/></g></g>
</svg>