<?xml version="1.0" encoding="utf-8"?>
<!-- Svg Vector Icons : http://www.onlinewebfonts.com/icon -->
<!DOCTYPE svg PUBLIC "-//W3C//DTD SVG 1.1//EN" "http://www.w3.org/Graphics/SVG/1.1/DTD/svg11.dtd">
<svg version="1.1" xmlns="http://www.w3.org/2000/svg" xmlns:xlink="http://www.w3.org/1999/xlink" x="0px" y="0px" viewBox="0 0 1000 1000" enable-background="new 0 0 1000 1000" xml:space="preserve">
<metadata> Svg Vector Icons : http://www.onlinewebfonts.com/icon </metadata>
<g><path d="M922.4,674.7c9.4,3.4,18.7,7.1,28.1,10.2c21,7,23.5,10.4,23.9,32.7c0.1,3.1,0,6.2,0,10.4c-13.5,0-26.1,0-38.8,0c-10.8,0.1-17.9,5.6-18.3,14c-0.4,8.8,7.1,15.4,18,15.6c12.6,0.2,25.3,0,39,0c0,17.3,0,33.5,0,49.6c0,8.3,0.2,16.6-0.2,24.8c-0.3,5.8,1.6,9.3,6.2,13.4c4.6,4.2,6.7,11.4,9,17.5c1.1,2.8,0,6.3,0.2,9.5c1.9,25.6-10.3,31-29.5,32.9c-7.5,0.7-15,1.7-23.4,2.7c3.2-48.7-11.3-89.7-48-121.3c-26.9-23.2-58.5-33.8-94-32.7c-26.4,0.9-50.5,9.2-72.2,24.1c-22.1,15.1-38.2,35.1-48.5,59.9c-10.1,24.3-13.2,49.4-9.1,76c-110.1,0-219.1,0-329.2,0c6.4-53.5-10.1-98.1-52.2-131.6c-29.2-23.2-63.3-31.7-100.3-27.6c-66.2,7.3-133.8,72.5-117.5,165.6c-14.2-2.3-27.8-4.3-41.3-6.9c-2.8-0.5-5.6-3.1-7.7-5.3c-10-10.6-8.3-43,2-53.2c3-2.9,5.2-7.7,5.6-11.9c1.4-14.6,2.1-29.2,2.7-43.8c0.3-7,2.2-10.8,10.3-11.5c10.1-0.7,20-3.3,30-5.3c9.6-1.9,15.6-9.3,13.9-17.2c-1.8-8.4-9.5-13-19-11.4c-10.3,1.8-20.6,3.7-30.9,5.5c-2.5-9.7,0.5-16.2,10.6-22.8c28.9-18.9,60.5-32.5,93.6-41.6c37.2-10.3,75.2-17.7,112.9-26.6c4.1-1,8.4-2.8,11.6-5.4c42.4-35.4,88.2-65.4,137.8-89.8C441,551.8,487.6,545,535,542c51-3.3,101.7-0.2,152.2,7.5c23.6,3.6,45.4,12.5,65.4,24.8c31.1,19.1,62.1,38.5,92,59.5c16.5,11.5,32.6,16.4,52.1,11.2c8.8-2.4,18.2-3,27.3-4.4c11.8-1.8,19.8,2.5,21.5,11.7c1.9,10-3.9,17.2-15.8,19.6c-2.3,0.5-4.7,0.9-7,1.3C922.7,673.7,922.5,674.2,922.4,674.7z M600.4,590c-113.3-12.7-209.1,25-295,98.3c96.2,21.8,191.5,10.3,287.5,5.3C595.4,658.4,597.9,624.3,600.4,590z M632.2,592.7c-2.4,32.6-4.8,65-7.2,97.8c44.3-3.7,87.4-7.4,131.9-11.1C725.3,634,687,602.3,632.2,592.7z M578,757.6C578,757.6,578,757.6,578,757.6c6,0.1,12.1,0.1,18.1,0.1c0.6,0,1.3,0,1.9-0.1c8.7-1.4,15.1-8.6,14.5-16.1c-0.7-7.6-7.1-13.2-15.9-13.3c-12.1-0.2-24.1-0.3-36.2,0c-9.3,0.2-15.5,6.4-15.7,14.6c-0.2,8,6.1,14.4,15.3,14.9C565.9,757.9,571.9,757.6,578,757.6z"/><path d="M245.1,10.2c59.2,0,118.5,0.1,177.7,0c28.3-0.1,56.8,25.9,57.2,55.8c0.4,34.3,0,68.6,0.1,102.9c0.2,45.8,0.6,91.5,0.7,137.3c0.1,38.1,1.1,76.3-0.3,114.4c-1.3,35.2-33.6,59.5-62.2,58.2c-21.6-0.9-43.2-0.4-64.8-0.5c-17.5-0.1-34.9-0.1-52.4,0c-21.9,0.1-43.9,0.3-65.8,0.5c-14.3,0.1-28.6,0.1-42.9,0.1c-37.5,0-75,0.3-112.5-0.1c-15.6-0.2-30.8-1-44.4-12c-17-13.8-24.9-31.4-25-51.9C9.9,301.1,9.8,187.4,10.5,73.7c0.2-29.3,13.1-53.4,46.6-62.1c3.6-0.9,7.5-1.4,11.2-1.4C127.2,10.2,186.2,10.2,245.1,10.2z M75.3,58.5c-8.9,0.1-15.1,6.3-15.2,14.9C59.8,96.3,60,388.8,60,411.7c-0.1,33,0-33,0,0c0.2,0,0-170.6,0.2-170.6c0,10.5-0.2,160.1-0.2,170.6c0,10.5,0-10.5,0,0c0,14.9,0.1-14.9,0,0c-0.1,21-1.1-20.9,0,0c0.7,14,7.2,19,20.8,18.9c28.6-0.4,57.2-0.6,85.7-0.7c37.2-0.1,74.3-0.1,111.5,0c14.6,0,29.2,0.1,43.8,0.2c30.5,0.2,61,0.8,91.5,0.3c11.8-0.2,17.9-5.2,17.5-18.4c-0.9-31.4,0-62.9,0-94.3c0-45.4-0.2-90.8,0-136.3c0.1-34.6-0.1-69.2,0-103.8c0-14-4.1-18.6-18.1-19.7c-1.9-0.1-3.8-0.1-5.7,0"/><path d="M800.1,989.8c-56.3,0-99.8-44-99.8-100.9c0.1-54.7,44.2-98.8,99-98.8c54.5,0,99.4,43.7,101,95.1C902.2,945.2,853.1,991.3,800.1,989.8z M837.9,890.4c0.3-19.9-17.4-37.9-37.5-38.2c-19.9-0.2-38,17.8-37.9,37.7c0,19.6,17.3,37.2,37,37.8C818.9,928.3,837.6,910.2,837.9,890.4z"/><path d="M100.4,889.3c-0.1-53.3,44.1-97.8,95.7-99.4c58.5-1.8,104.3,45.7,104,98.8c-0.3,56.4-43.6,101-98.7,101C143.8,989.8,100.5,946.7,100.4,889.3z M199.5,852.4c-19.8,0.3-37,17.7-37,37.6c0.1,20.2,18,38.1,37.8,37.7c20.6-0.4,37.5-17.7,37.5-38.1C237.7,869.6,219.7,852.1,199.5,852.4z"/><path d="M138.5,385.5c0-93.4,0-185.6,0-278.6c3-0.3,5.8-0.8,8.5-0.8c37.6,0,75.1-0.8,112.6,0.3c38.9,1.1,72.5,15,89.4,52.5c26.2,58.1,1.1,128.5-76.4,140.6c-19.9,3.1-40.6,1.7-60.9,2.4c-3.4,0.1-6.9,0-11.5,0c0,28.2,0,55.7,0,83.6C179.2,385.5,159.3,385.5,138.5,385.5z M200.6,247.5c16.5,0,32.1,0.1,47.6-0.1c3.8,0,7.6-0.8,11.3-1.4c21.2-3.7,35.2-19.1,35.8-39.4c0.7-23.1-11.2-40.4-33.7-43.7c-19.9-2.9-40.3-2.2-61.1-3.2C200.6,189.9,200.6,218.1,200.6,247.5z"/></g>
</svg>